<?xml version="1.0" encoding="utf-8"?>
<!-- Generator: Adobe Illustrator 16.0.3, SVG Export Plug-In . SVG Version: 6.00 Build 0)  -->
<!DOCTYPE svg PUBLIC "-//W3C//DTD SVG 1.1//EN" "http://www.w3.org/Graphics/SVG/1.1/DTD/svg11.dtd">
<svg version="1.1" id="Layer_3" xmlns="http://www.w3.org/2000/svg" xmlns:xlink="http://www.w3.org/1999/xlink" x="0px" y="0px"
	 width="32px" height="32px" viewBox="0 0 32 32" enable-background="new 0 0 32 32" xml:space="preserve">
<path fill="none" stroke="#3CBB99" stroke-width="2.667" stroke-linecap="round" stroke-linejoin="round" d="M4.333,5.333h16.335
	C21.956,5.333,23,6.527,23,8v18.666c0,1.473-1.044,2.668-2.332,2.668H4.333C3.045,29.334,2,28.139,2,26.666V8
	C2,6.527,3.045,5.333,4.333,5.333z"/>
<line fill="none" stroke="#3CBB99" stroke-width="2.667" stroke-linecap="round" stroke-linejoin="round" x1="17.167" y1="2.667" x2="17.167" y2="8"/>
<line fill="none" stroke="#3CBB99" stroke-width="2.667" stroke-linecap="round" stroke-linejoin="round" x1="7.833" y1="2.667" x2="7.833" y2="8"/>
<line fill="none" stroke="#3CBB99" stroke-width="2.667" stroke-linecap="round" stroke-linejoin="round" x1="2" y1="13.333" x2="23" y2="13.333"/>
<path fill="none" stroke="#3CBB99" stroke-width="2.667" stroke-linecap="round" stroke-linejoin="round" d="M26.625,5.333h1.126
	C28.993,5.333,30,6.527,30,8v18.666c0,1.473-1.007,2.668-2.249,2.668H26.5"/>
<line fill="none" stroke="#3CBB99" stroke-width="2.667" stroke-linecap="round" stroke-linejoin="round" x1="27.667" y1="13.333" x2="30" y2="13.333"/>
</svg>
